<svg version="1.1" xmlns="http://www.w3.org/2000/svg" xmlns:xlink="http://www.w3.org/1999/xlink" x="0px" y="0px" width="40px" height="40px" viewBox="0 0 40 40" enable-background="new 0 0 40 40" xml:space="preserve">
    <path fill="#231F20" d="M25.592,22.829c0,1.526-1.236,2.763-2.762,2.763h-5.66c-1.524,0-2.762-1.236-2.762-2.763v-5.658c0-1.526,1.237-2.763,2.762-2.763h5.66c1.525,0,2.762,1.236,2.762,2.763V22.829z M22.83,13h-5.66C14.871,13,13,14.871,13,17.171v5.658c0,2.3,1.871,4.171,4.17,4.171h5.66c2.299,0,4.17-1.871,4.17-4.171v-5.658C27,14.871,25.129,13,22.83,13"/>
    <path fill="#231F20" d="M20,22.212c-1.223,0-2.213-0.99-2.213-2.212s0.99-2.213,2.213-2.213s2.212,0.991,2.212,2.213S21.223,22.212,20,22.212 M20,16.379c-1.997,0-3.621,1.624-3.621,3.621c0,1.996,1.624,3.621,3.621,3.621s3.621-1.624,3.621-3.621S21.997,16.379,20,16.379"/>
    <path fill="#231F20" d="M24.496,16.406c0,0.479-0.389,0.868-0.869,0.868c-0.479,0-0.867-0.389-0.867-0.868c0-0.479,0.389-0.868,0.867-0.868C24.107,15.538,24.496,15.928,24.496,16.406"/>
</svg>
