<?xml version="1.0" encoding="utf-8"?>
<!-- Generator: Adobe Illustrator 24.3.0, SVG Export Plug-In . SVG Version: 6.00 Build 0)  -->
<svg version="1.1" id="Calque_1" xmlns="http://www.w3.org/2000/svg" xmlns:xlink="http://www.w3.org/1999/xlink" x="0px" y="0px"
	 viewBox="0 0 400 155" style="enable-background:new 0 0 400 155;" xml:space="preserve">
<style type="text/css">
	.st0{fill:#009EE2;}
	.st1{fill:#003254;}
</style>
<g>
	<rect x="0.06" y="142.32" class="st0" width="399.9" height="12.68"/>
	<polygon class="st1" points="18.37,111.52 18.37,83.82 24.16,83.82 24.16,106.92 32.84,106.92 32.84,111.52 	"/>
	<path class="st1" d="M45.04,99.66c0-1.88,0.08-4.56-2.5-4.56c-2.49,0-2.46,2.92-2.46,4.56H45.04z M40.09,102.69
		c0,2.31,0.08,5.76,2.46,5.76c1.92,0,2.3-1.84,2.3-3.45h5.49c-0.07,2.11-0.77,3.83-2.07,5.03c-1.26,1.19-3.18,1.88-5.72,1.88
		c-6.98,0-7.91-4.26-7.91-10.32c0-5.29,0.77-9.82,7.91-9.82c7.29,0,8.1,4.72,7.91,10.93H40.09z"/>
	<path class="st1" d="M58.55,105.3c-0.04,0.89,0,1.73,0.27,2.35c0.3,0.61,0.88,0.92,1.95,0.92c1.07,0,2-0.69,2-2
		c0-4.1-9.52-3.18-9.52-9.36c0-4.18,4.14-5.45,7.64-5.45c3.68,0,7.02,1.77,6.71,5.95h-5.29c0-1.35-0.16-2.15-0.54-2.51
		c-0.34-0.34-0.81-0.42-1.38-0.42c-1.19,0-1.84,0.77-1.84,2.08c0,3.07,9.52,2.91,9.52,9.13c0,3.38-2.77,5.91-7.25,5.91
		c-4.72,0-7.87-1.19-7.56-6.6H58.55z"/>
	<polygon class="st1" points="80.15,111.52 80.15,83.82 85.94,83.82 85.94,106.92 94.61,106.92 94.61,111.52 	"/>
	<path class="st1" d="M102.75,111.53h-5.41V92.15h5.41V111.53z M102.75,88.08h-5.41v-4.26h5.41V88.08z"/>
	<path class="st1" d="M117.44,101.66c0-3.87,0.04-6.56-2.3-6.56c-2.23,0-2.19,2.68-2.19,6.56c0,4.88,0.34,6.91,2.19,6.91
		C117.1,108.57,117.44,106.53,117.44,101.66 M107.54,83.82h5.42v10.17h0.07c1.11-1.66,2.46-2.24,4.42-2.24
		c5.45,0,5.29,6.03,5.29,9.95c0,3.99,0.2,10.2-5.41,10.2c-2.07,0-3.57-0.65-4.57-2.53h-0.07v2.15h-5.15V83.82z"/>
	<path class="st1" d="M136.67,99.66c0-1.88,0.08-4.56-2.49-4.56c-2.5,0-2.46,2.92-2.46,4.56H136.67z M139.51,83.82l-6.15,5.48h-2.49
		l3.46-5.48H139.51z M131.72,102.69c0,2.31,0.07,5.76,2.46,5.76c1.91,0,2.3-1.84,2.3-3.45h5.49c-0.08,2.11-0.77,3.83-2.07,5.03
		c-1.26,1.19-3.18,1.88-5.72,1.88c-6.99,0-7.91-4.26-7.91-10.32c0-5.29,0.77-9.82,7.91-9.82c7.29,0,8.1,4.72,7.91,10.93H131.72z"/>
	<path class="st1" d="M151.05,92.14v2.49h0.08c1-2.22,2.84-2.88,5.03-2.88v4.84c-4.76-0.31-4.84,2.46-4.84,4.38v10.55h-5.41V92.14
		H151.05z"/>
	<path class="st1" d="M163.41,105.5c0,1.38,0.23,3.07,2,3.07c3.18,0,2.69-4.3,2.69-6.4C165.41,102.27,163.41,102.05,163.41,105.5
		 M173.39,107.92c0,1.19,0.16,2.41,0.27,3.61h-5.03l-0.23-2.57h-0.08c-1.15,1.99-2.73,2.95-5.06,2.95c-3.76,0-5.15-2.8-5.15-6.17
		c0-6.41,4.96-6.68,9.98-6.61v-1.49c0-1.65-0.24-2.84-2.19-2.84c-1.88,0-2.03,1.42-2.03,2.96h-5.3c0-2.34,0.73-3.83,2-4.72
		c1.22-0.92,2.99-1.26,5.06-1.26c6.87,0,7.75,2.96,7.75,6.49V107.92z"/>
	<path class="st1" d="M187.36,109.56h-0.08c-1.07,1.73-2.53,2.34-4.57,2.34c-2.57,0-4.83-1.53-4.83-4.22V92.14h5.41v13.43
		c0,1.73,0.31,3,2.03,3c1.73,0,2.04-1.27,2.04-3V92.14h5.41v15.54c0,1.27,0.08,2.57,0.19,3.84h-5.6V109.56z"/>
	<polygon class="st1" points="200.48,111.52 195.11,111.52 200.82,101.35 195.57,92.14 201.63,92.14 204.47,98.01 207.73,92.14 
		213.15,92.14 207.97,101.43 213.52,111.52 207.43,111.52 204.05,104.73 	"/>
	<rect x="215.79" y="99.2" class="st1" width="9.4" height="3.91"/>
	<path class="st1" d="M234.98,95.79h2.57c2.3,0,2.96-2.3,2.96-4.07c0-2.65-1.12-3.64-2.96-3.64h-2.57V95.79z M234.98,111.52h-5.79
		V83.82h10.7c3.96,0,6.48,2.54,6.48,7.25c0,3.53-1.38,6.17-5.13,6.79v0.07c1.26,0.16,5.03,0.47,5.03,5.45
		c0,1.76,0.11,6.99,0.65,8.14h-5.68c-0.77-1.69-0.62-3.57-0.62-5.37c0-3.31,0.31-6.11-4.14-6.11h-1.49V111.52z"/>
	<path class="st1" d="M255.09,105.5c0,1.38,0.23,3.07,2,3.07c3.18,0,2.69-4.3,2.69-6.4C257.08,102.27,255.09,102.05,255.09,105.5
		 M265.06,107.92c0,1.19,0.16,2.41,0.27,3.61h-5.03l-0.23-2.57h-0.08c-1.15,1.99-2.73,2.95-5.06,2.95c-3.76,0-5.15-2.8-5.15-6.17
		c0-6.41,4.96-6.68,9.98-6.61v-1.49c0-1.65-0.24-2.84-2.2-2.84c-1.88,0-2.03,1.42-2.03,2.96h-5.3c0-2.34,0.73-3.83,2-4.72
		c1.23-0.92,2.99-1.26,5.07-1.26c6.86,0,7.75,2.96,7.75,6.49V107.92z"/>
	<path class="st1" d="M278.95,101.66c0-3.87,0.04-6.56-2.18-6.56c-2.35,0-2.31,2.68-2.31,6.56c0,4.88,0.35,6.91,2.31,6.91
		C278.61,108.57,278.95,106.53,278.95,101.66 M279.22,111.52v-2.15h-0.08c-1,1.88-2.49,2.53-4.56,2.53c-5.6,0-5.41-6.21-5.41-10.2
		c0-3.92-0.15-9.95,5.3-9.95c1.95,0,3.3,0.58,4.41,2.24h0.08V83.82h5.42v27.71H279.22z"/>
	<path class="st1" d="M294.61,111.53h-5.41V92.15h5.41V111.53z M294.61,88.08h-5.41v-4.26h5.41V88.08z"/>
	<path class="st1" d="M309.27,99.05c0-2.88-0.73-3.84-2.42-3.84c-2.3,0-2.49,2.03-2.49,6.07c0,5.91,0.5,7.17,2.49,7.17
		c1.69,0,2.49-1.53,2.49-4.07h5.42c0,5.26-2.84,7.52-7.91,7.52c-6.99,0-7.91-4.25-7.91-10.32c0-5.3,0.77-9.83,7.91-9.83
		c4.99,0,7.83,2.23,7.83,7.29H309.27z"/>
	<path class="st1" d="M323.31,105.5c0,1.38,0.23,3.07,2,3.07c3.18,0,2.69-4.3,2.69-6.4C325.31,102.27,323.31,102.05,323.31,105.5
		 M333.28,107.92c0,1.19,0.16,2.41,0.26,3.61h-5.02l-0.23-2.57h-0.08c-1.14,1.99-2.73,2.95-5.06,2.95c-3.76,0-5.14-2.8-5.14-6.17
		c0-6.41,4.95-6.68,9.98-6.61v-1.49c0-1.65-0.24-2.84-2.19-2.84c-1.88,0-2.03,1.42-2.03,2.96h-5.3c0-2.34,0.73-3.83,2-4.72
		c1.22-0.92,2.99-1.26,5.06-1.26c6.87,0,7.75,2.96,7.75,6.49V107.92z"/>
	<path class="st1" d="M347.26,109.56h-0.08c-1.07,1.73-2.53,2.34-4.56,2.34c-2.57,0-4.84-1.53-4.84-4.22V92.14h5.41v13.43
		c0,1.73,0.31,3,2.04,3c1.72,0,2.03-1.27,2.03-3V92.14h5.4v15.54c0,1.27,0.08,2.57,0.2,3.84h-5.6V109.56z"/>
	<polygon class="st1" points="360.38,111.52 355.01,111.52 360.72,101.35 355.47,92.14 361.53,92.14 364.37,98.01 367.63,92.14 
		373.04,92.14 367.86,101.43 373.43,111.52 367.32,111.52 363.95,104.73 	"/>
	<path class="st1" d="M39.56,30.21c11.01,0,11.1-8.81,11.1-11.72c0-12.42-7.93-12.42-11.01-12.42c-2.73,0-3.35,0-3.35,2.02
		c-0.18,6.69-0.26,15.24-0.09,21.85C37.18,30.12,38.15,30.21,39.56,30.21 M36.3,46.77c0,5.63,1.23,5.99,5.81,5.99
		c2.91,0,3.08,0.17,3.08,1.76c0,2.55-0.09,2.81-1.85,2.81c-4.58,0-9.08-0.26-13.66-0.26c-5.02,0-10.13,0.26-15.15,0.26
		c-1.67,0-1.76-0.17-1.76-1.94c0-2.03,0-2.21,2.11-2.55c3.09-0.35,5.03-0.62,5.29-5.2c0.35-6.17,0.35-14.01,0.35-27.76v-6.7
		c0-6.34-0.79-7.31-4.67-7.49c-2.82-0.18-2.99-0.18-2.99-2.21c0-2.12,0-2.46,1.67-2.46c2.91,0,7.14,0.08,17.27,0.08
		c17.35,0,23.08,0,28.99,3.53c5.02,2.99,6.7,8.19,6.7,12.59c0,12.42-11.45,18.24-23.09,18.24c-2.73,0-5.2-0.18-8.19-0.36L36.3,46.77
		z"/>
	<path class="st1" d="M97.12,49.23c0.18,0.98,0.62,1.41,6.7,1.41c12.51,0,13.56-2.38,15.15-7.49c0.71-2.2,1.33-4.31,2.03-4.31
		c0.71,0,1.59,0.26,2.91,0.8c0.89,0.35,1.41,0.88,1.32,1.67c0,1.41-1.14,6.78-2.55,13.13c-0.53,2.55-0.97,2.9-2.47,2.9
		c-1.58,0-6.17-0.44-18.77-0.44c-14.89,0-22.47,0.44-26.78,0.44c-1.41,0-1.5-0.7-1.5-1.94c0-1.15,0-2.47,1.76-2.47
		c5.64,0,6-1.94,6-15.5c0-8.19,0.08-25.82-0.27-28.54c-0.44-3.17-2.02-3.17-5.28-3.26c-1.67,0-2.11,0-2.11-2.11
		c0-1.68,0-2.38,1.67-2.38c2.12,0,11.63,0.17,13.57,0.17c2.38,0,12.68-0.17,14.8-0.17c1.85,0,1.94,0.09,1.94,1.85
		c0,1.67-0.26,2.28-2.29,2.55c-5.9,0.71-5.9,1.76-5.99,17.18C96.94,26.69,96.85,47.03,97.12,49.23"/>
	<path class="st1" d="M160.9,27.21c3.96,0,10.04-0.08,10.04-10.4c0-10.66-7.84-10.66-10.22-10.66c-4.67,0-4.75,0.71-4.93,1.94
		c-0.27,1.5-0.27,15.86-0.36,18.86C157.03,27.13,158.08,27.21,160.9,27.21 M140.11,13.2c-0.1-7.4-0.8-7.4-6-7.67
		c-0.97,0-1.41-0.26-1.41-2.03c0.09-2.12,0.09-2.47,1.67-2.47c1.85,0,6.26,0.18,11.36,0.18c7.05,0,12.52-0.18,18.5-0.18
		c8.29,0,14.01,0.53,18.5,4.4c4.32,3.61,4.93,8.19,4.93,11.1c0,6.34-3.79,12.07-12.95,13.83c4.84,8.99,12.24,21.14,17.97,22.55
		c1.76,0.44,4.49,0.35,4.49,1.06c0,1.41,0,2.99-0.7,3.44c-1.06,0.7-5.11,1.4-8.9,1.4c-14.45,0-19.73-8.29-27.85-26.43
		c-1.31,0.17-1.93,0.17-4.32,0c0,15.16,0,16.82,0.7,18.5c0.62,1.67,1.94,1.76,5.2,1.85c2.03,0.09,2.38,0.09,2.38,2.03
		c0,2.03,0,2.55-1.58,2.55c-5.02,0-10.04-0.26-15.07-0.26c-4.5,0-8.9,0.26-13.39,0.26c-0.79,0-1.32-0.17-1.32-1.94
		c0-1.85,0-2.29,2.03-2.38c5.73-0.43,5.73-2.29,5.73-24.67V13.2z"/>
</g>
</svg>
